<svg width="56" height="56" viewBox="0 0 56 56" fill="none" xmlns="http://www.w3.org/2000/svg">
<circle cx="28" cy="28" r="28" fill="#FBCC23"/>
<path d="M41.3416 29.4853C43.3082 27.5187 44.413 24.8515 44.413 22.0703C44.413 19.2892 43.3082 16.6219 41.3416 14.6554C39.375 12.6888 36.7078 11.584 33.9266 11.584C31.1455 11.584 28.4782 12.6888 26.5117 14.6554L26.4096 14.7429L26.3221 14.8449C24.4045 16.7987 23.331 19.4275 23.3328 22.1651C23.33 22.5402 23.3495 22.9151 23.3911 23.2879L12.4838 38.1616C12.1534 38.6115 11.9953 39.1649 12.0381 39.7214C12.0809 40.2779 12.3218 40.8006 12.7171 41.1947L14.8023 43.2799C15.1964 43.6751 15.7191 43.916 16.2756 43.9588C16.8321 44.0016 17.3855 43.8435 17.8354 43.5132L32.709 32.6058C33.0818 32.6475 33.4568 32.6669 33.8318 32.6642C36.5695 32.666 39.1982 31.5925 41.152 29.6749L41.2541 29.5874L41.3416 29.4853ZM41.9978 22.1651C41.9999 23.9278 41.4265 25.6431 40.3646 27.0501L28.9469 15.6324C30.1587 14.721 31.6007 14.1656 33.1108 14.0288C34.6209 13.8919 36.1392 14.179 37.4951 14.8577C38.851 15.5364 39.9907 16.5799 40.7862 17.8708C41.5816 19.1617 42.0012 20.6488 41.9978 22.1651ZM16.4501 41.6321L14.3648 39.5469L24.1494 26.2189C25.2167 28.7595 27.2375 30.7803 29.778 31.8476L16.4501 41.6321ZM25.6659 22.1651C25.6638 20.4024 26.2372 18.6871 27.2991 17.2801L38.7168 28.6979C37.505 29.6093 36.063 30.1646 34.5529 30.3014C33.0428 30.4383 31.5245 30.1512 30.1686 29.4725C28.8127 28.7938 27.673 27.7504 26.8775 26.4595C26.0821 25.1686 25.6625 23.6814 25.6659 22.1651ZM24.7472 31.2497C24.9663 31.4709 25.0892 31.7696 25.0892 32.0809C25.0892 32.3922 24.9663 32.6909 24.7472 32.9121L22.9974 34.6619C22.7744 34.8775 22.4764 34.998 22.1662 34.998C21.8561 34.998 21.558 34.8775 21.335 34.6619C21.116 34.4407 20.9931 34.142 20.9931 33.8307C20.9931 33.5194 21.116 33.2207 21.335 32.9996L23.0849 31.2497C23.3061 31.0307 23.6048 30.9078 23.9161 30.9078C24.2274 30.9078 24.5261 31.0307 24.7472 31.2497Z" fill="white"/>
</svg>
