<svg width="56" height="56" viewBox="0 0 56 56" fill="none" xmlns="http://www.w3.org/2000/svg">
<circle cx="28" cy="28" r="28" fill="#FBCC23"/>
<g clip-path="url(#clip0_1134_13167)">
<path d="M32.6647 38.4971C31.3172 38.4983 29.9904 38.1655 28.8029 37.5285C27.6155 36.8915 26.6044 35.9702 25.8601 34.8469L27.8036 33.5555C28.3356 34.3578 29.0579 35.0159 29.9061 35.4712C30.7543 35.9265 31.702 36.1647 32.6647 36.1647C33.6273 36.1647 34.575 35.9265 35.4232 35.4712C36.2714 35.0159 36.9937 34.3578 37.5257 33.5555L39.4692 34.8469C38.7249 35.9702 37.7138 36.8915 36.5264 37.5285C35.339 38.1655 34.0122 38.4983 32.6647 38.4971ZM37.3309 25.6649C36.8695 25.6649 36.4184 25.8017 36.0347 26.0581C35.651 26.3145 35.352 26.6789 35.1754 27.1052C34.9988 27.5315 34.9526 28.0006 35.0426 28.4532C35.1326 28.9058 35.3548 29.3215 35.6811 29.6478C36.0074 29.9741 36.4232 30.1963 36.8757 30.2863C37.3283 30.3764 37.7974 30.3302 38.2238 30.1536C38.6501 29.977 39.0145 29.6779 39.2708 29.2943C39.5272 28.9106 39.664 28.4595 39.664 27.998C39.6672 27.6908 39.6089 27.386 39.4928 27.1015C39.3766 26.817 39.2049 26.5586 38.9876 26.3413C38.7704 26.124 38.5119 25.9523 38.2274 25.8362C37.943 25.72 37.6382 25.6618 37.3309 25.6649ZM27.9984 25.6649C27.537 25.6649 27.0859 25.8017 26.7022 26.0581C26.3185 26.3145 26.0195 26.6789 25.8429 27.1052C25.6663 27.5315 25.6201 28.0006 25.7101 28.4532C25.8001 28.9058 26.0223 29.3215 26.3486 29.6478C26.6749 29.9741 27.0907 30.1963 27.5432 30.2863C27.9958 30.3764 28.4649 30.3302 28.8913 30.1536C29.3176 29.977 29.682 29.6779 29.9383 29.2943C30.1947 28.9106 30.3315 28.4595 30.3315 27.998C30.3347 27.6908 30.2764 27.386 30.1603 27.1015C30.0441 26.817 29.8724 26.5586 29.6551 26.3413C29.4379 26.124 29.1794 25.9523 28.8949 25.8362C28.6105 25.72 28.3057 25.6618 27.9984 25.6649Z" fill="white"/>
<path d="M41.998 20.6654H34.9986V15.9991C34.998 15.3805 34.752 14.7875 34.3146 14.3501C33.8772 13.9126 33.2841 13.6666 32.6655 13.666H14.0005C13.3819 13.6666 12.7888 13.9126 12.3514 14.3501C11.914 14.7875 11.668 15.3805 11.6674 15.9991V27.6648C11.6719 30.5147 12.7185 33.2646 14.6101 35.3964C16.5016 37.5282 19.1074 38.8946 21.9366 39.2382C22.9909 41.7112 24.867 43.7441 27.2475 44.993C29.6281 46.2419 32.367 46.6302 35.0009 46.0923C37.6348 45.5543 40.0021 44.123 41.7022 42.0406C43.4024 39.9582 44.331 37.3524 44.3311 34.6641V22.9985C44.3305 22.3799 44.0845 21.7868 43.6471 21.3494C43.2097 20.912 42.6166 20.666 41.998 20.6654ZM14.0005 27.6648V15.9991H32.6655V20.6654H23.333C22.7144 20.666 22.1213 20.912 21.6839 21.3494C21.2465 21.7868 21.0005 22.3799 20.9999 22.9985V34.6641C21.0028 35.3608 21.0684 36.0557 21.1958 36.7406C19.1504 36.2577 17.3276 35.0992 16.0219 33.4523C14.7163 31.8055 14.0041 29.7664 14.0005 27.6648ZM41.998 34.6641C41.998 37.1393 41.0147 39.513 39.2646 41.2632C37.5144 43.0134 35.1406 43.9966 32.6655 43.9966C30.1903 43.9966 27.8166 43.0134 26.0664 41.2632C24.3162 39.513 23.333 37.1393 23.333 34.6641V22.9985H41.998V34.6641Z" fill="white"/>
</g>
<defs>
<clipPath id="clip0_1134_13167">
<rect width="37.33" height="37.33" fill="white" transform="translate(9.33337 9.33301)"/>
</clipPath>
</defs>
</svg>
