<svg width="56" height="56" viewBox="0 0 56 56" fill="none" xmlns="http://www.w3.org/2000/svg">
<circle cx="28" cy="28" r="28" fill="#FBCC23"/>
<path d="M27.999 39.4528C27.5198 39.9621 26.9414 40.3678 26.2993 40.6448C25.6573 40.9219 24.9653 41.0644 24.266 41.0636H16.3334C15.4671 41.0636 14.6363 40.7195 14.0237 40.1069C13.4112 39.4944 13.067 38.6635 13.067 37.7972V18.199C13.067 16.396 14.5304 14.9326 16.3334 14.9326H24.266C25.7368 14.9326 27.0639 15.5504 27.999 16.5434C28.4782 16.0341 29.0567 15.6285 29.6987 15.3514C30.3407 15.0744 31.0328 14.9319 31.732 14.9326H39.6646C41.4677 14.9326 42.931 16.396 42.931 18.199V30.7979C42.9313 29.8897 42.6665 29.0012 42.1692 28.2413C41.6719 27.4814 40.9636 26.8831 40.1313 26.5199V18.199C40.1313 18.0752 40.0821 17.9566 39.9946 17.869C39.9071 17.7815 39.7884 17.7324 39.6646 17.7324H31.732C30.4441 17.7324 29.3989 18.7776 29.3989 20.0655V35.9307C29.3989 36.4907 29.5967 37.0058 29.9252 37.4071C30.0858 38.7398 30.5561 39.9773 31.2654 41.0431C30.0188 40.9301 28.8568 40.3644 27.999 39.4528ZM15.8668 18.199V37.7972C15.8668 38.0548 16.0758 38.2639 16.3334 38.2639H24.266C25.5539 38.2639 26.5991 37.2186 26.5991 35.9307V20.0655C26.5991 18.7776 25.5539 17.7324 24.266 17.7324H16.3334C16.2096 17.7324 16.0909 17.7815 16.0034 17.869C15.9159 17.9566 15.8668 18.0752 15.8668 18.199ZM41.8596 39.3726C42.5536 38.5366 42.9326 37.4838 42.931 36.3974C42.931 36.1499 43.0293 35.9125 43.2044 35.7375C43.3794 35.5624 43.6168 35.4641 43.8643 35.4641C44.1118 35.4641 44.3492 35.5624 44.5242 35.7375C44.6992 35.9125 44.7975 36.1499 44.7975 36.3974C44.7975 37.9685 44.2315 39.4869 43.2032 40.6747C42.1748 41.8625 40.7529 42.64 39.198 42.8648V43.8634C39.198 44.1109 39.0997 44.3483 38.9247 44.5233C38.7497 44.6983 38.5123 44.7966 38.2648 44.7966C38.0173 44.7966 37.7799 44.6983 37.6049 44.5233C37.4298 44.3483 37.3315 44.1109 37.3315 43.8634V42.8648C35.7764 42.6403 34.3544 41.8629 33.3259 40.6751C32.2975 39.4873 31.7316 37.9686 31.732 36.3974C31.732 36.1499 31.8303 35.9125 32.0054 35.7375C32.1804 35.5624 32.4178 35.4641 32.6653 35.4641C32.9128 35.4641 33.1502 35.5624 33.3252 35.7375C33.5002 35.9125 33.5985 36.1499 33.5985 36.3974C33.5971 37.4838 33.9761 38.5365 34.6699 39.3726C35.5266 40.4047 36.8164 41.0636 38.2629 41.0636H38.2666C39.7113 41.0636 41.0048 40.4047 41.8596 39.3726ZM38.2648 39.1971C37.8968 39.1981 37.5323 39.1264 37.1922 38.986C36.8521 38.8457 36.543 38.6395 36.2828 38.3793C36.0227 38.1191 35.8165 37.8101 35.6761 37.47C35.5358 37.1298 35.464 36.7653 35.465 36.3974V30.7979C35.465 30.0553 35.76 29.3432 36.285 28.8181C36.8101 28.2931 37.5222 27.9981 38.2648 27.9981C39.0073 27.9981 39.7194 28.2931 40.2445 28.8181C40.7695 29.3432 41.0645 30.0553 41.0645 30.7979V36.3974C41.0645 37.1399 40.7695 37.852 40.2445 38.3771C39.7194 38.9021 39.0073 39.1971 38.2648 39.1971Z" fill="white"/>
</svg>
