<svg width="56" height="56" viewBox="0 0 56 56" fill="none" xmlns="http://www.w3.org/2000/svg">
<circle cx="28" cy="28" r="28" fill="#FBCC23"/>
<path d="M39.1975 23.192C38.6375 22.5543 38.062 21.9166 37.4554 21.31L37.0043 20.89L37.2221 20.7034C37.9827 20.0504 38.5248 19.1799 38.7751 18.2092C39.0254 17.2385 38.972 16.2143 38.622 15.275C38.1148 14.2157 37.3117 13.3259 36.3097 12.7132C35.3078 12.1004 34.1499 11.7909 32.9758 11.822V14.9328C33.5292 14.9251 34.0747 15.0652 34.5559 15.3386C35.0371 15.612 35.4367 16.0089 35.7133 16.4882C35.9778 17.1104 35.7133 17.7948 34.9823 18.5258C34.8734 18.6502 34.749 18.728 34.6401 18.8369C29.9739 15.0883 24.8565 12.973 22.3523 15.4772C22.09 15.7453 21.8745 16.0555 21.7146 16.3949V16.5504L21.4346 17.3748L14.5752 37.7507C14.3158 38.5186 14.243 39.3372 14.3629 40.1388C14.4828 40.9404 14.792 41.7018 15.2648 42.3601C15.7376 43.0184 16.3605 43.5546 17.0818 43.9242C17.8031 44.2939 18.6021 44.4863 19.4126 44.4857C19.9418 44.4806 20.4668 44.3913 20.968 44.2213L42.3083 37.1441C42.5706 37.0465 42.8016 36.8799 42.9771 36.662L43.3038 36.382C45.528 34.1422 44.097 29.8337 41.1106 25.6496C42.8839 24.6147 44.9257 24.1327 46.9746 24.2653V21.1545C44.2329 21.0036 41.513 21.7162 39.1975 23.192ZM20.0659 41.266C19.7128 41.3828 19.3342 41.3993 18.9723 41.3134C18.6105 41.2276 18.2796 41.0429 18.0166 40.7799C17.7536 40.517 17.5689 40.1861 17.4831 39.8242C17.3972 39.4623 17.4137 39.0837 17.5305 38.7307L19.6459 32.3535C21.1556 35.2324 23.4753 37.6061 26.3186 39.1817L20.0659 41.266ZM30.9538 37.6419C28.6031 37.0193 26.4587 35.7866 24.7379 34.0685C23.0171 32.3504 21.7809 30.208 21.1546 27.8583L22.7101 23.192L22.8034 23.332C22.9745 23.6742 23.1922 24.032 23.41 24.3897C23.6278 24.7475 23.6589 24.8408 23.8144 25.0741C23.97 25.3074 24.3277 25.8207 24.6077 26.2096C24.8876 26.5984 24.9032 26.6451 25.0743 26.8628C25.2454 27.0806 25.7431 27.7183 26.1009 28.1383L26.5519 28.6827C27.0808 29.2893 27.6407 29.8803 28.2318 30.487C28.8229 31.0936 29.2895 31.4824 29.7872 32.0424L30.3005 32.4779L31.5137 33.4578L32.0892 33.8933C32.5247 34.2044 32.9447 34.5155 33.3802 34.7955L33.8624 35.1065C34.4224 35.4487 34.9823 35.7754 35.5267 36.0553H35.6045L30.9538 37.6419ZM41.0795 34.1733H40.9862C39.913 34.7643 35.4489 33.2867 30.4249 28.2472C29.8961 27.7183 29.3984 27.205 28.9473 26.6917L28.4962 26.1473L27.6718 25.1519L27.2208 24.5297C27.0186 24.2342 26.8008 23.9542 26.6142 23.6742L26.2098 23.021L25.7587 22.2899C25.6342 22.0721 25.5409 21.8699 25.432 21.6677C25.3232 21.4655 25.1987 21.2633 25.1054 21.0456C25.022 20.8633 24.9493 20.6764 24.8876 20.4856C24.8099 20.2834 24.7166 20.0812 24.6543 19.8946C24.5921 19.7079 24.5766 19.599 24.5299 19.4124C24.4832 19.2257 24.4521 19.0702 24.421 18.9147C24.4133 18.78 24.4133 18.6449 24.421 18.5102C24.406 18.3863 24.406 18.2609 24.421 18.1369L24.5921 17.6548C25.1521 17.0948 28.0607 17.6548 31.9492 20.6101C31.2901 20.9075 30.5854 21.0916 29.865 21.1545V24.2653C31.5172 24.1702 33.1202 23.668 34.5312 22.8032L35.2778 23.5187C35.9311 24.172 36.5377 24.8408 37.1132 25.5096C36.2229 27.1197 35.8945 28.9805 36.18 30.798L39.2908 30.1914C39.1991 29.6144 39.1991 29.0264 39.2908 28.4494C39.7655 29.1692 40.1866 29.923 40.5507 30.7047C41.4217 32.7579 41.3595 33.9089 41.0795 34.1733Z" fill="white"/>
</svg>
