<svg width="56" height="56" viewBox="0 0 56 56" fill="none" xmlns="http://www.w3.org/2000/svg">
<circle cx="28" cy="28" r="28" fill="#56E39F"/>
<path d="M23.3335 25.2292V24.7917C23.3335 23.7097 24.0627 22.823 25.101 22.5612L37.8315 19.1575C38.0473 19.0997 38.2734 19.0923 38.4925 19.1358C38.7115 19.1793 38.9177 19.2725 39.095 19.4083C39.2723 19.5441 39.4161 19.7188 39.5153 19.9189C39.6144 20.119 39.6663 20.3392 39.6668 20.5626V22.1667" stroke="white" stroke-width="2.5" stroke-linecap="round" stroke-linejoin="round"/>
<path d="M39.6668 30.9125V36.7458C39.6668 37.7601 39.0157 38.6118 38.0627 38.9333L36.4585 39.5167C34.57 40.1525 32.6668 38.7569 32.6668 36.7458C32.6625 36.2293 32.8226 35.7247 33.1242 35.3052C33.4257 34.8857 33.8529 34.573 34.3439 34.4125L38.0627 33.0891C39.0157 32.7682 39.6668 31.9268 39.6668 30.9125ZM39.6668 30.9125V13.5627C39.6663 13.4511 39.6402 13.3411 39.5904 13.2411C39.5407 13.1412 39.4686 13.054 39.3799 12.9863C39.2911 12.9186 39.188 12.8722 39.0784 12.8506C38.9689 12.8291 38.8559 12.833 38.7481 12.862L24.2085 16.7711C23.9549 16.8427 23.7319 16.9957 23.5738 17.2065C23.4157 17.4173 23.3313 17.6742 23.3335 17.9377V34.4169C23.3335 35.4312 22.6824 36.2836 21.7293 36.6044L17.9377 37.9169C16.9256 38.2581 16.3335 39.1725 16.3335 40.2502C16.3335 42.2613 18.2672 43.6445 20.1252 43.0211L21.7293 42.4377C22.6824 42.1169 23.3335 41.2652 23.3335 40.2502V34.4169" stroke="white" stroke-width="2.5" stroke-linecap="round" stroke-linejoin="round"/>
</svg>
