<svg width="56" height="56" viewBox="0 0 56 56" fill="none" xmlns="http://www.w3.org/2000/svg">
<circle cx="28" cy="28" r="28" fill="#56E39F"/>
<path d="M28 42C35.732 42 42 35.732 42 28C42 20.268 35.732 14 28 14C20.268 14 14 20.268 14 28C14 35.732 20.268 42 28 42Z" stroke="white" stroke-width="2.5" stroke-miterlimit="10" stroke-linecap="round"/>
<path d="M33.5486 26.7593L37.4037 25.126L39.2834 19.7841M41.9274 29.019L37.4037 25.126M22.4521 26.7593L18.597 25.126L16.7172 19.7841M14.0732 29.019L18.597 25.126M28.0003 22.1051V17.9073L32.667 14.7981M23.3337 14.7974L28.0003 17.9073M32.0837 32.667L34.1253 36.167L32.0837 41.3441M39.2834 36.167H34.2712M23.917 32.667L21.8753 36.167L23.944 41.3806M16.7442 36.167H21.8753M28.0003 22.1051L22.4521 26.7593L23.917 32.667H32.0837L33.5486 26.7593L28.0003 22.1051Z" stroke="white" stroke-width="2.5" stroke-linecap="round" stroke-linejoin="round"/>
</svg>
