<svg width="56" height="56" viewBox="0 0 56 56" fill="none" xmlns="http://www.w3.org/2000/svg">
<circle cx="28" cy="28" r="28" fill="#56E39F"/>
<g clip-path="url(#clip0_330_18255)">
<path d="M31.7443 36.8083C31.7443 39.0637 30.4268 40.8916 28.1714 40.8916H19.7495C17.4941 40.8916 16.1766 39.0637 16.1766 36.8083M32.6375 31.7041C33.7649 31.7041 34.6792 32.8468 34.6792 34.2562C34.6792 35.6656 33.7649 36.8083 32.6375 36.8083H15.2834C14.156 36.8083 13.2417 35.6656 13.2417 34.2562C13.2417 32.8468 14.156 31.7041 15.2834 31.7041" stroke="white" stroke-width="2.5" stroke-miterlimit="10" stroke-linecap="round"/>
<path d="M15.2834 27.8761V27.8621C15.2834 24.353 18.1545 22.5168 21.6636 22.5168H26.2573C29.7664 22.5168 32.6375 24.367 32.6375 27.8761V27.8621M26.5763 17.4126L27.051 21.494M33.1479 31.7043H22.6404C22.5052 31.7043 22.3756 31.758 22.2799 31.8536L20.5681 33.5654C20.5444 33.5891 20.5162 33.6079 20.4853 33.6208C20.4543 33.6336 20.4211 33.6402 20.3875 33.6402C20.354 33.6402 20.3208 33.6336 20.2898 33.6208C20.2588 33.6079 20.2307 33.5891 20.207 33.5654L18.4952 31.8536C18.3995 31.758 18.2699 31.7043 18.1347 31.7043H14.7729C14.3668 31.7043 13.9774 31.5429 13.6902 31.2558C13.403 30.9686 13.2417 30.5791 13.2417 30.173V30.173C13.2417 29.7669 13.403 29.3774 13.6902 29.0903C13.9774 28.8031 14.3668 28.6418 14.7729 28.6418H33.1479C33.5541 28.6418 33.9435 28.8031 34.2307 29.0903C34.5179 29.3774 34.6792 29.7669 34.6792 30.173C34.6792 30.5791 34.5179 30.9686 34.2307 31.2558C33.9435 31.5429 33.5541 31.7043 33.1479 31.7043Z" stroke="white" stroke-width="2.5" stroke-miterlimit="10" stroke-linecap="round"/>
<path d="M27.5337 40.8918H36.422C36.937 40.8918 37.4331 40.6971 37.8107 40.3467C38.1882 39.9963 38.4194 39.5162 38.4579 39.0026L40.7407 17.4126" stroke="white" stroke-width="2.5" stroke-miterlimit="10" stroke-linecap="round"/>
<path d="M34.6792 17.4123L35.7 13.3289L38.6987 12.3081" stroke="white" stroke-width="2.5" stroke-linecap="round" stroke-linejoin="round"/>
<path d="M25.4917 17.4126H41.825" stroke="white" stroke-width="2.5" stroke-miterlimit="10" stroke-linecap="round"/>
</g>
<defs>
<clipPath id="clip0_330_18255">
<rect width="32.6667" height="32.6667" fill="white" transform="translate(11.2002 10.2666)"/>
</clipPath>
</defs>
</svg>
