<svg width="56" height="56" viewBox="0 0 56 56" fill="none" xmlns="http://www.w3.org/2000/svg">
<circle cx="28" cy="28" r="28" fill="#56E39F"/>
<path d="M33.8337 32.6668H11.667L22.7503 12.8335L33.8337 32.6668Z" stroke="white" stroke-width="2.5" stroke-linejoin="round"/>
<path d="M28.6797 23.5164C30.6894 22.3843 33.0158 21.9453 35.2998 22.2675C37.5838 22.5896 39.6981 23.6548 41.3163 25.2986C42.9344 26.9423 43.9662 29.0732 44.2524 31.3619C44.5385 33.6507 44.0631 35.97 42.8995 37.9615C41.7359 39.9531 39.9489 41.5061 37.8145 42.3806C35.6801 43.2551 33.3172 43.4025 31.0907 42.8C28.8642 42.1975 26.8981 40.8786 25.496 39.0471C24.0939 37.2155 23.334 34.9733 23.3335 32.6667" stroke="white" stroke-width="2.5" stroke-linejoin="round"/>
</svg>
