<svg width="56" height="56" viewBox="0 0 56 56" fill="none" xmlns="http://www.w3.org/2000/svg">
<circle cx="28" cy="28" r="28" fill="#56E39F"/>
<path d="M19.8333 43.167H36.1667M33.8333 40.8337L37.3333 44.3337M22.1667 40.8337L18.6667 44.3337M34.4167 12.8337H32.6667C32.6667 12.5242 32.5438 12.2275 32.325 12.0087C32.1062 11.7899 31.8094 11.667 31.5 11.667H24.5C24.1906 11.667 23.8938 11.7899 23.675 12.0087C23.4562 12.2275 23.3333 12.5242 23.3333 12.8337H21.5833C20.5013 12.8367 19.4645 13.2679 18.6994 14.033C17.9343 14.7981 17.5031 15.835 17.5 16.917V34.9274C17.5 37.5014 28 39.667 28 39.667C28 39.667 38.5 37.5014 38.5 34.9274V16.917C38.5 15.834 38.0698 14.7954 37.304 14.0296C36.5382 13.2639 35.4996 12.8337 34.4167 12.8337V12.8337ZM28 35.0003C27.3078 35.0003 26.6311 34.7951 26.0555 34.4105C25.4799 34.0259 25.0313 33.4793 24.7664 32.8397C24.5015 32.2002 24.4322 31.4964 24.5673 30.8175C24.7023 30.1386 25.0356 29.5149 25.5251 29.0255C26.0146 28.536 26.6383 28.2026 27.3172 28.0676C27.9961 27.9325 28.6999 28.0018 29.3394 28.2667C29.9789 28.5317 30.5256 28.9803 30.9101 29.5558C31.2947 30.1314 31.5 30.8081 31.5 31.5003C31.5 32.4286 31.1313 33.3188 30.4749 33.9752C29.8185 34.6316 28.9283 35.0003 28 35.0003ZM35 23.3337C35 23.6431 34.8771 23.9398 34.6583 24.1586C34.4395 24.3774 34.1428 24.5003 33.8333 24.5003H22.1667C21.8572 24.5003 21.5605 24.3774 21.3417 24.1586C21.1229 23.9398 21 23.6431 21 23.3337V18.667C21 18.3576 21.1229 18.0608 21.3417 17.842C21.5605 17.6232 21.8572 17.5003 22.1667 17.5003H33.8333C34.1428 17.5003 34.4395 17.6232 34.6583 17.842C34.8771 18.0608 35 18.3576 35 18.667V23.3337Z" stroke="white" stroke-width="2.5" stroke-linecap="round" stroke-linejoin="round"/>
</svg>
