<svg width="16" height="11" viewBox="0 0 16 11" fill="none" xmlns="http://www.w3.org/2000/svg">
<path d="M15 2V2.57143C15 3.12371 14.5372 3.56648 14.0273 3.77869C13.4778 4.00737 12.9 4.48834 12.9 5.5C12.9 6.51165 13.4778 6.99263 14.0273 7.22131C14.5372 7.43352 15 7.87629 15 8.42857V9C15 9.55228 14.5523 10 14 10H5.9H2C1.44772 10 1 9.55228 1 9V8.42857C1 7.87629 1.4628 7.43352 1.97269 7.22131C2.52215 6.99263 3.1 6.51166 3.1 5.5C3.1 4.48834 2.52215 4.00737 1.97269 3.77869C1.4628 3.56648 1 3.12371 1 2.57143V2C1 1.44772 1.44772 1 2 1H5.9H14C14.5523 1 15 1.44772 15 2Z" fill="white"/>
<path d="M5.9 1H2C1.44772 1 1 1.44772 1 2V2.57143C1 3.12371 1.4628 3.56648 1.97269 3.77869C2.52215 4.00737 3.1 4.48834 3.1 5.5C3.1 6.51166 2.52215 6.99263 1.97269 7.22131C1.4628 7.43352 1 7.87629 1 8.42857V9C1 9.55228 1.44772 10 2 10H5.9M5.9 1H14C14.5523 1 15 1.44772 15 2V2.57143C15 3.12371 14.5372 3.56648 14.0273 3.77869C13.4778 4.00737 12.9 4.48834 12.9 5.5C12.9 6.51165 13.4778 6.99263 14.0273 7.22131C14.5372 7.43352 15 7.87629 15 8.42857V9C15 9.55228 14.5523 10 14 10H5.9M5.9 1V10" stroke="#080708"/>
</svg>
