<svg width="275" height="177" viewBox="0 0 275 177" fill="none" xmlns="http://www.w3.org/2000/svg">
<path opacity="0.6" d="M138 120C171.137 120 198 93.1371 198 60C198 26.8629 171.137 0 138 0C104.863 0 78 26.8629 78 60C78 93.1371 104.863 120 138 120Z" fill="#51E18D"/>
<path d="M151.398 65.7041C153.248 65.4112 155.021 66.6825 154.941 68.5537C154.885 69.8613 154.677 71.1619 154.32 72.4288C153.655 74.788 152.486 76.9747 150.894 78.8385C149.302 80.7024 147.325 82.1989 145.099 83.2252C142.873 84.2513 140.451 84.7827 138 84.7827C135.549 84.7827 133.127 84.2513 130.901 83.2252C128.675 82.1989 126.698 80.7024 125.106 78.8385C123.514 76.9747 122.346 74.7879 121.68 72.4288C121.323 71.1619 121.115 69.8613 121.059 68.5537C120.979 66.6825 122.752 65.411 124.602 65.7041C126.452 65.9971 127.655 67.7662 127.984 69.6101C128.042 69.9388 128.117 70.265 128.208 70.5877C128.607 72.0032 129.309 73.3152 130.264 74.4336C131.219 75.5519 132.405 76.4499 133.741 77.0655C135.076 77.6813 136.529 78.0001 138 78.0001C139.471 78.0001 140.924 77.6813 142.259 77.0655C143.595 76.4499 144.781 75.5519 145.736 74.4336C146.692 73.3152 147.393 72.0032 147.792 70.5877C147.883 70.2652 147.958 69.9388 148.016 69.6101C148.345 67.7662 149.548 65.9971 151.398 65.7041Z" fill="#080708"/>
<path d="M117.131 56.0869C120.732 56.0869 123.652 53.1671 123.652 49.5652C123.652 45.9633 120.732 43.0435 117.131 43.0435C113.529 43.0435 110.609 45.9633 110.609 49.5652C110.609 53.1671 113.529 56.0869 117.131 56.0869Z" fill="#080708"/>
<path d="M158.869 56.0869C162.471 56.0869 165.391 53.1671 165.391 49.5652C165.391 45.9633 162.471 43.0435 158.869 43.0435C155.268 43.0435 152.348 45.9633 152.348 49.5652C152.348 53.1671 155.268 56.0869 158.869 56.0869Z" fill="#080708"/>
<path d="M180.188 101C178.642 101 177.132 100.542 175.847 99.6834C174.562 98.8249 173.561 97.6048 172.97 96.1772C172.378 94.7497 172.224 93.1788 172.525 91.6634C172.827 90.1479 173.571 88.7558 174.663 87.6632C175.756 86.5706 177.148 85.8266 178.663 85.5251C180.179 85.2237 181.75 85.3784 183.177 85.9697C184.605 86.561 185.825 87.5624 186.683 88.8471C187.542 90.1319 188 91.6423 188 93.1875C187.998 95.2587 187.174 97.2444 185.709 98.709C184.244 100.174 182.259 100.998 180.188 101ZM180.188 88.5C179.26 88.5 178.354 88.7749 177.583 89.29C176.812 89.8051 176.212 90.5371 175.857 91.3937C175.502 92.2502 175.409 93.1927 175.59 94.102C175.771 95.0113 176.217 95.8465 176.873 96.5021C177.528 97.1576 178.364 97.6041 179.273 97.7849C180.182 97.9658 181.125 97.873 181.981 97.5182C182.838 97.1634 183.57 96.5626 184.085 95.7917C184.6 95.0209 184.875 94.1146 184.875 93.1875C184.874 91.9447 184.38 90.7531 183.501 89.8743C182.622 88.9955 181.43 88.5012 180.188 88.5Z" fill="#080708"/>
<path d="M180.188 119.75L167.006 104.205C166.823 103.971 166.642 103.736 166.463 103.5C164.211 100.534 162.995 96.9113 163 93.1875C163 88.6291 164.811 84.2574 168.034 81.0341C171.257 77.8108 175.629 76 180.188 76C184.746 76 189.118 77.8108 192.341 81.0341C195.564 84.2574 197.375 88.6291 197.375 93.1875C197.38 96.9096 196.165 100.531 193.914 103.495L193.913 103.5C193.913 103.5 193.444 104.116 193.373 104.198L180.188 119.75ZM168.956 101.617C168.959 101.617 169.322 102.098 169.405 102.202L180.188 114.919L190.984 102.184C191.053 102.098 191.419 101.614 191.42 101.613C193.26 99.1892 194.254 96.2297 194.25 93.1875C194.25 89.4579 192.768 85.881 190.131 83.2438C187.494 80.6066 183.917 79.125 180.188 79.125C176.458 79.125 172.881 80.6066 170.244 83.2438C167.607 85.881 166.125 89.4579 166.125 93.1875C166.122 96.2316 167.117 99.1928 168.958 101.617H168.956Z" fill="#080708"/>
<path d="M16.4973 172.76V154.28H13.8573V160.92H10.7773C10.3973 157.62 8.55734 155.58 6.07734 155.58C3.33734 155.58 1.31734 158.1 1.31734 162.14C1.31734 166.2 3.33734 168.74 6.07734 168.74C8.63734 168.74 10.5373 166.58 10.7973 163.06H13.8573V172.76H16.4973ZM6.07734 166.34C4.71734 166.34 3.83734 164.88 3.83734 162.14C3.83734 159.4 4.71734 157.96 6.07734 157.96C7.43734 157.96 8.33734 159.4 8.33734 162.14C8.33734 164.88 7.43734 166.34 6.07734 166.34ZM34.2958 172.78V154.3H31.6558V172.78H34.2958ZM22.7758 166.18V158.08H29.0358V155.94H20.1358V168.38H21.7558C25.6958 168.38 28.0158 168.3 30.5158 167.82L30.2758 165.64C28.0558 166.06 25.9758 166.18 22.7758 166.18ZM39.0742 156.4H49.0742V157.3H39.1142V161.7H51.9942V159.92H41.7142V158.96H51.6742V154.62H39.0742V156.4ZM53.7142 164.48V162.58H37.0342V164.48H53.7142ZM52.2342 170.78H41.5542V169.78H51.7342V165.4H38.9142V167.18H49.1142V168.12H38.9342V172.56H52.2342V170.78ZM143.609 155.22C139.749 155.22 136.749 157.34 136.749 160.56C136.749 163.76 139.749 165.88 143.609 165.88C147.489 165.88 150.489 163.76 150.489 160.56C150.489 157.34 147.489 155.22 143.609 155.22ZM143.609 157.38C146.109 157.38 147.909 158.56 147.909 160.56C147.909 162.52 146.109 163.72 143.609 163.72C141.129 163.72 139.329 162.52 139.329 160.56C139.329 158.56 141.129 157.38 143.609 157.38ZM151.969 170.52V168.36H135.289V170.52H151.969ZM169.967 170.7V168.54H162.927V165.8H168.507V163.68H157.827V161.62H168.087V155.48H155.187V157.58H165.487V159.56H155.207V165.8H160.287V168.54H153.287V170.7H169.967ZM184.817 159.1H188.177V163.66H190.817V154.3H188.177V157H184.817V159.1ZM185.077 163.44L186.417 161.42C183.537 160.56 182.277 158.38 182.277 156.22V154.9H179.617V156.22C179.617 158.56 178.337 160.82 175.277 161.74L176.637 163.8C178.737 163.14 180.177 161.82 180.997 160.06C181.777 161.6 183.137 162.82 185.077 163.44ZM191.337 172.52V170.46H181.297V169.38H190.817V164.44H178.677V166.46H188.217V167.48H178.697V172.52H191.337ZM206.175 154.3V158.74H203.415V160.88H206.175V165.26H208.815V154.3H206.175ZM203.235 164.76L204.515 162.7C201.715 161.78 200.415 159.6 200.355 157.52H203.935V155.4H194.035V157.52H197.655C197.555 159.82 196.255 162.16 193.315 163.18L194.655 165.26C196.815 164.54 198.255 163.04 199.055 161.18C199.855 162.8 201.235 164.1 203.235 164.76ZM202.595 165.66C198.675 165.66 196.275 166.96 196.275 169.2C196.275 171.44 198.675 172.74 202.595 172.74C206.495 172.74 208.895 171.44 208.895 169.2C208.895 166.96 206.495 165.66 202.595 165.66ZM202.595 170.74C200.135 170.74 198.915 170.22 198.915 169.2C198.915 168.18 200.135 167.66 202.595 167.66C205.035 167.66 206.255 168.18 206.255 169.2C206.255 170.22 205.035 170.74 202.595 170.74ZM211.394 157.64H222.254V155.66H218.154V154.16H215.494V155.66H211.394V157.64ZM228.354 160.36V158.2H225.914V154.28H223.274V164.24H225.914V160.36H228.354ZM221.354 161.1C221.354 159.24 219.574 158.08 216.834 158.08C214.114 158.08 212.314 159.24 212.314 161.1C212.314 162.94 214.114 164.1 216.834 164.1C219.574 164.1 221.354 162.94 221.354 161.1ZM214.834 161.1C214.834 160.32 215.614 159.94 216.834 159.94C218.054 159.94 218.834 160.32 218.834 161.1C218.834 161.88 218.054 162.24 216.834 162.24C215.614 162.24 214.834 161.88 214.834 161.1ZM226.434 170.66H216.394V169.64H225.914V164.96H213.754V166.88H223.314V167.84H213.774V172.58H226.434V170.66ZM244.052 163.68H246.432V161.5H244.052V154.28H241.392V172.7H244.052V163.68ZM234.832 156.18H229.852V158.3H232.332C232.172 162 231.492 164.64 229.032 167.36L231.092 168.86C234.352 165.22 234.832 161.26 234.832 156.18ZM239.912 156.18H235.452V158.3H237.432C237.272 162.4 236.652 165.46 234.192 168.56L236.272 170.02C239.472 166.02 239.912 161.52 239.912 156.18ZM264.091 170.58V168.44H260.391V163.94C261.771 163.08 262.611 161.76 262.611 160.16C262.611 157.14 259.711 155.2 255.731 155.2C251.791 155.2 248.871 157.14 248.871 160.16C248.851 161.76 249.651 163.08 251.091 163.94V168.44H247.411V170.58H264.091ZM255.731 157.28C258.291 157.28 260.011 158.32 260.011 160.16C260.011 162 258.291 163.04 255.731 163.04C253.171 163.04 251.471 162 251.471 160.16C251.471 158.32 253.171 157.28 255.731 157.28ZM257.771 168.44H253.711V164.92C254.351 165.04 255.031 165.1 255.731 165.1C256.451 165.1 257.131 165.04 257.771 164.92V168.44ZM268.329 166.8H270.589C269.989 162.26 273.909 163.72 273.909 159.38C273.909 156.98 272.089 155.62 269.729 155.52C267.749 155.42 265.369 156.56 265.149 160.1H267.649C267.749 158.5 268.529 157.74 269.649 157.74C270.769 157.74 271.249 158.54 271.249 159.58C271.249 162.18 267.669 161.58 268.329 166.8ZM267.989 171.28H270.909V168.44H267.989V171.28Z" fill="#080708"/>
<path d="M76.0639 162.08V159.9H73.8639V154.28H71.2239V168.08H73.8639V162.08H76.0639ZM66.4239 161.9L69.0039 162.2C69.4239 159.86 69.4239 158.06 69.4239 156.78V155.64H59.9639V157.74H66.8239C66.8039 158.86 66.7239 160.14 66.4239 161.9ZM70.3839 164.82L70.2239 162.94C68.4639 163.18 66.6839 163.32 64.8439 163.4V159.92H62.2639V163.5C61.0639 163.52 59.9239 163.52 58.9039 163.52L59.1439 165.62C62.2839 165.62 66.6039 165.52 70.3839 164.82ZM74.4439 170.3H64.2239V166.86H61.5839V172.4H74.4439V170.3ZM92.4623 164.7V154.3H89.8023V164.7H92.4623ZM87.1823 164.06L88.4423 162C85.4623 161.14 84.1623 158.98 84.1623 156.76V154.98H81.4823V156.76C81.4823 159 80.1823 161.36 77.0823 162.32L78.3623 164.4C80.5223 163.7 82.0023 162.32 82.8623 160.56C83.6823 162.18 85.1023 163.44 87.1823 164.06ZM92.4623 165.56H80.2023V172.5H92.4623V165.56ZM89.8823 170.44H82.8023V167.62H89.8823V170.44ZM114.552 172.72V154.3H111.912V172.72H114.552ZM106.412 159.26V158.24H110.212V156.06H99.892V158.24H103.732V159.26C103.732 162.4 102.252 165.78 99.152 167.16L100.652 169.26C102.812 168.28 104.292 166.28 105.112 163.86C105.932 166.12 107.372 167.86 109.532 168.8L110.972 166.72C107.892 165.44 106.412 162.26 106.412 159.26ZM132.69 165.2V154.3H130.05V156.78H126.07C125.19 155.84 123.89 155.26 122.37 155.26C119.65 155.26 117.53 157.18 117.53 159.82C117.53 162.48 119.65 164.4 122.37 164.4C123.89 164.4 125.17 163.82 126.05 162.88H130.05V165.2H132.69ZM122.37 162.14C121.01 162.14 120.03 161.28 120.03 159.82C120.03 158.38 121.01 157.52 122.37 157.52C123.73 157.52 124.73 158.38 124.73 159.82C124.73 161.28 123.73 162.14 122.37 162.14ZM130.05 158.88V160.78H127.13C127.19 160.46 127.23 160.14 127.23 159.82C127.23 159.48 127.19 159.18 127.13 158.88H130.05ZM132.69 166.04H120.15V168.12H130.05V172.74H132.69V166.04Z" fill="#51E18D"/>
</svg>
