<svg width="17" height="17" viewBox="0 0 17 17" fill="none" xmlns="http://www.w3.org/2000/svg">
<path d="M7.33329 13.9998C8.81244 13.9995 10.249 13.5044 11.4141 12.5932L15.0775 16.2565L16.2558 15.0782L12.5925 11.4148C13.5041 10.2496 13.9996 8.8127 14 7.33317C14 3.65734 11.0091 0.666504 7.33329 0.666504C3.65746 0.666504 0.666626 3.65734 0.666626 7.33317C0.666626 11.009 3.65746 13.9998 7.33329 13.9998ZM7.33329 2.33317C10.0908 2.33317 12.3333 4.57567 12.3333 7.33317C12.3333 10.0907 10.0908 12.3332 7.33329 12.3332C4.57579 12.3332 2.33329 10.0907 2.33329 7.33317C2.33329 4.57567 4.57579 2.33317 7.33329 2.33317Z" fill="#91949D"/>
</svg>
