<svg width="160" height="177" viewBox="0 0 160 177" fill="none" xmlns="http://www.w3.org/2000/svg">
<g clip-path="url(#clip0_962_30143)">
<path opacity="0.6" d="M81 120C114.137 120 141 93.1371 141 60C141 26.8629 114.137 0 81 0C47.8629 0 21 26.8629 21 60C21 93.1371 47.8629 120 81 120Z" fill="#51E18D"/>
<path d="M94.3984 65.704C96.2482 65.411 98.0214 66.6824 97.941 68.5536C97.8849 69.8612 97.6774 71.1618 97.32 72.4287C96.6547 74.7879 95.4858 76.9746 93.894 78.8384C92.302 80.7023 90.3251 82.1988 88.0992 83.225C85.8732 84.2512 83.4513 84.7826 81.0001 84.7826C78.549 84.7826 76.1271 84.2512 73.9011 83.225C71.6752 82.1988 69.6981 80.7023 68.1063 78.8384C66.5144 76.9746 65.3456 74.7877 64.6803 72.4287C64.3229 71.1618 64.1154 69.8612 64.0593 68.5536C63.9789 66.6824 65.7521 65.4109 67.6019 65.704C69.4518 65.997 70.6555 67.766 70.9838 69.61C71.0424 69.9387 71.1172 70.2649 71.2081 70.5876C71.6074 72.0031 72.3088 73.3151 73.2638 74.4335C74.219 75.5518 75.4051 76.4497 76.7407 77.0654C78.0763 77.6812 79.5295 78 81.0001 78C82.4708 78 83.924 77.6812 85.2595 77.0654C86.5951 76.4497 87.7813 75.5518 88.7365 74.4335C89.6915 73.3151 90.3929 72.0031 90.7921 70.5876C90.883 70.265 90.9579 69.9387 91.0165 69.61C91.3448 67.766 92.5484 65.997 94.3984 65.704Z" fill="#080708"/>
<path d="M60.1306 56.0869C63.7325 56.0869 66.6524 53.1671 66.6524 49.5652C66.6524 45.9633 63.7325 43.0435 60.1306 43.0435C56.5288 43.0435 53.6089 45.9633 53.6089 49.5652C53.6089 53.1671 56.5288 56.0869 60.1306 56.0869Z" fill="#080708"/>
<path d="M101.869 56.0869C105.471 56.0869 108.391 53.1671 108.391 49.5652C108.391 45.9633 105.471 43.0435 101.869 43.0435C98.2675 43.0435 95.3477 45.9633 95.3477 49.5652C95.3477 53.1671 98.2675 56.0869 101.869 56.0869Z" fill="#080708"/>
<path d="M136 101.344V93.5C136 86.4628 131.22 80.5347 124.745 78.7519C124.104 77.1375 122.538 76 120.688 76C118.837 76 117.271 77.1375 116.63 78.7519C110.155 80.5369 105.375 86.4628 105.375 93.5V101.344L101.641 105.078C101.437 105.281 101.276 105.522 101.166 105.788C101.056 106.053 101 106.338 101 106.625V111C101 111.58 101.23 112.137 101.641 112.547C102.051 112.957 102.607 113.187 103.188 113.187H138.188C138.768 113.187 139.324 112.957 139.734 112.547C140.145 112.137 140.375 111.58 140.375 111V106.625C140.375 106.338 140.319 106.053 140.209 105.788C140.099 105.522 139.938 105.281 139.734 105.078L136 101.344ZM136 108.812H105.375V107.531L109.109 103.797C109.313 103.594 109.474 103.353 109.584 103.087C109.694 102.822 109.75 102.537 109.75 102.25V93.5C109.75 87.4691 114.657 82.5625 120.688 82.5625C126.718 82.5625 131.625 87.4691 131.625 93.5V102.25C131.625 102.832 131.855 103.387 132.266 103.797L136 107.531V108.812ZM120.688 119.75C122.042 119.752 123.364 119.331 124.469 118.547C125.573 117.763 126.406 116.654 126.852 115.375H114.523C114.969 116.654 115.802 117.763 116.906 118.547C118.011 119.331 119.333 119.752 120.688 119.75Z" fill="#080708"/>
</g>
<path d="M15.4538 163.42H18.1338V161.24H15.4538V154.3H12.8138V172.72H15.4538V163.42ZM5.97383 155.58C3.17383 155.58 1.13383 158.1 1.13383 162.14C1.13383 166.2 3.17383 168.74 5.97383 168.74C8.75383 168.74 10.8138 166.2 10.8138 162.14C10.8138 158.1 8.75383 155.58 5.97383 155.58ZM5.97383 166.34C4.59383 166.34 3.67383 164.88 3.67383 162.14C3.67383 159.4 4.59383 157.96 5.97383 157.96C7.33383 157.96 8.27383 159.4 8.27383 162.14C8.27383 164.88 7.33383 166.34 5.97383 166.34ZM34.3323 165.4V154.3H31.6723V165.4H34.3323ZM29.1723 164.78L30.5123 162.76C27.5723 161.8 26.2523 159.64 26.1923 157.48H29.8323V155.4H19.8123V157.48H23.5123C23.4523 159.76 22.0923 162.1 19.1123 163.06L20.4523 165.12C22.6123 164.42 24.0723 163.02 24.8923 161.18C25.7523 162.86 27.0923 164.14 29.1723 164.78ZM34.3323 166.22H21.7923V168.32H31.6723V172.74H34.3323V166.22ZM92.4188 172.76V154.28H89.7788V172.76H92.4188ZM82.5188 155.58C79.7388 155.58 77.6788 158.1 77.6788 162.14C77.6788 166.2 79.7388 168.74 82.5188 168.74C85.2988 168.74 87.3588 166.2 87.3588 162.14C87.3588 158.1 85.2988 155.58 82.5188 155.58ZM82.5188 157.96C83.8788 157.96 84.8188 159.4 84.8188 162.14C84.8188 164.88 83.8788 166.34 82.5188 166.34C81.1588 166.34 80.2188 164.88 80.2188 162.14C80.2188 159.4 81.1588 157.96 82.5188 157.96ZM109.109 160.38H112.049V164.04H114.689V154.3H112.049V158.24H109.089C108.609 156.26 106.709 154.98 104.369 154.98C101.609 154.98 99.5285 156.8 99.5285 159.32C99.5285 161.88 101.609 163.68 104.369 163.68C106.689 163.68 108.629 162.36 109.109 160.38ZM102.049 159.32C102.049 157.96 103.009 157.16 104.369 157.16C105.729 157.16 106.709 157.96 106.709 159.32C106.709 160.7 105.729 161.5 104.369 161.5C103.009 161.5 102.049 160.7 102.049 159.32ZM113.489 166.32V164.94H110.889V166.32C110.889 168 110.049 169.66 108.029 170.62V165.1H105.609V166.9H103.749V165.1H101.309V172.5H108.029V171.12L109.069 172.7C110.589 172.12 111.529 171.1 112.149 169.82C112.769 171.1 113.769 172.14 115.309 172.7L116.609 170.74C114.349 169.94 113.489 168.24 113.489 166.32ZM103.749 168.8H105.609V170.54H103.749V168.8ZM133.127 172.7V154.28H130.627V172.7H133.127ZM129.187 154.6H126.727V160.1H123.107V162.24H126.727V171.9H129.187V154.6ZM120.587 166.06V156.06H118.007V168.32H119.287C121.607 168.32 123.587 168.24 125.807 167.78L125.487 165.58C123.787 165.9 122.267 166 120.587 166.06ZM151.965 170.58V168.44H148.265V163.94C149.645 163.08 150.485 161.76 150.485 160.16C150.485 157.14 147.585 155.2 143.605 155.2C139.665 155.2 136.745 157.14 136.745 160.16C136.725 161.76 137.525 163.08 138.965 163.94V168.44H135.285V170.58H151.965ZM143.605 157.28C146.165 157.28 147.885 158.32 147.885 160.16C147.885 162 146.165 163.04 143.605 163.04C141.045 163.04 139.345 162 139.345 160.16C139.345 158.32 141.045 157.28 143.605 157.28ZM145.645 168.44H141.585V164.92C142.225 165.04 142.905 165.1 143.605 165.1C144.325 165.1 145.005 165.04 145.645 164.92V168.44ZM155.164 166.76H157.084L157.504 158.58L157.604 155.8H154.644L154.744 158.58L155.164 166.76ZM154.684 171.28H157.604V168.44H154.684V171.28Z" fill="#080708"/>
<path d="M58.082 160V157.84H55.662V154.3H53.022V163.5H55.662V160H58.082ZM51.102 159C51.102 156.58 49.022 154.82 46.202 154.82C43.402 154.82 41.302 156.58 41.302 159C41.302 161.46 43.402 163.2 46.202 163.2C49.022 163.2 51.102 161.46 51.102 159ZM43.842 159C43.842 157.72 44.822 156.94 46.202 156.94C47.582 156.94 48.562 157.72 48.562 159C48.562 160.3 47.582 161.08 46.202 161.08C44.822 161.08 43.842 160.3 43.842 159ZM56.182 170.46H46.142V169.26H55.662V164.22H43.502V166.26H53.062V167.36H43.522V172.5H56.182V170.46ZM74.4604 165.22V154.32H71.8004V165.22H74.4604ZM70.5804 164.1L70.2804 162C67.8804 162.38 65.7404 162.5 62.7004 162.5V160.9H68.5604V155.34H60.0804V157.46H65.9604V158.94H60.1004V164.62H61.7204C65.4004 164.62 67.8404 164.52 70.5804 164.1ZM74.4604 166.04H62.2004V172.5H74.4604V166.04ZM71.8804 170.44H64.8004V168.12H71.8804V170.44Z" fill="#51E18D"/>
<defs>
<clipPath id="clip0_962_30143">
<rect width="120" height="120" fill="white" transform="translate(21)"/>
</clipPath>
</defs>
</svg>
