<svg width="26" height="32" viewBox="0 0 26 32" fill="none" xmlns="http://www.w3.org/2000/svg">
<path d="M26 13.0909C26 23.2727 13 32 13 32C13 32 0 23.2727 0 13.0909C5.13764e-08 9.61898 1.36964 6.28926 3.80761 3.83424C6.24558 1.37922 9.55219 0 13 0C16.4478 0 19.7544 1.37922 22.1924 3.83424C24.6304 6.28926 26 9.61898 26 13.0909Z" fill="#1593FF"/>
<path d="M7.69112 9.26125L12.4608 6.21816C12.7889 6.00887 13.2085 6.00887 13.5365 6.21816L18.3062 9.26125C18.4715 9.3667 18.5716 9.54921 18.5716 9.74527C18.5716 10.0624 18.3145 10.3194 17.9974 10.3194H7.99993C7.68283 10.3194 7.42578 10.0624 7.42578 9.74527C7.42578 9.54921 7.52583 9.3667 7.69112 9.26125Z" fill="white" stroke="white"/>
<path d="M9.32617 12.7793V16.4618" stroke="white" stroke-width="1.5" stroke-linecap="round"/>
<path d="M12.998 12.7793V16.4618" stroke="white" stroke-width="1.5" stroke-linecap="round"/>
<path d="M7.0293 19.1523H18.9712" stroke="white" stroke-width="1.5" stroke-linecap="round"/>
<path d="M16.6738 12.7793V16.4618" stroke="white" stroke-width="1.5" stroke-linecap="round"/>
</svg>
