<svg width="26" height="32" viewBox="0 0 26 32" fill="none" xmlns="http://www.w3.org/2000/svg">
<path d="M26 13.0909C26 23.2727 13 32 13 32C13 32 0 23.2727 0 13.0909C5.13764e-08 9.61898 1.36964 6.28926 3.80761 3.83424C6.24558 1.37922 9.55219 0 13 0C16.4478 0 19.7544 1.37922 22.1924 3.83424C24.6304 6.28926 26 9.61898 26 13.0909Z" fill="#EFA116"/>
<path d="M6.63671 13.346C5.90933 12.6354 6.23497 10.4952 6.23497 10.4952L12.6002 6.30706C12.9405 6.0831 13.3827 6.08804 13.718 6.31954L19.7656 10.4952C19.7656 10.4952 20.077 12.6354 19.3485 13.346L20.4755 16.8663C20.682 17.5116 20.2007 18.1711 19.5233 18.1712L16.4916 18.1718H9.59046L6.47314 18.1712C5.79688 18.1711 5.31574 17.5137 5.52006 16.8691L6.63671 13.346Z" fill="white"/>
<path d="M19.7656 10.4952C19.7656 10.4952 20.077 12.6354 19.3485 13.346M19.7656 10.4952H6.23497M19.7656 10.4952L13.718 6.31954C13.3827 6.08804 12.9405 6.0831 12.6002 6.30706L6.23497 10.4952M15.2168 11.9212C15.2168 11.9212 16.3014 14.1377 17.6463 14.1377C18.1875 14.1377 18.62 14.0567 19.3485 13.346M15.2168 11.9212C15.2168 11.9212 14.7527 14.1377 13.1633 14.1377C11.3701 14.1377 10.7843 11.9212 10.7843 11.9212M15.2168 11.9212L16.4916 18.1718M10.7843 11.9212C10.7843 11.9212 9.98442 14.1377 8.27272 14.1377C7.6661 14.1377 6.98669 13.688 6.63671 13.346M10.7843 11.9212L9.59046 18.1718M6.23497 10.4952C6.23497 10.4952 5.90933 12.6354 6.63671 13.346M6.63671 13.346L5.52006 16.8691C5.31574 17.5137 5.79688 18.1711 6.47314 18.1712L9.59046 18.1718M19.3485 13.346L20.4755 16.8663C20.682 17.5116 20.2007 18.1711 19.5233 18.1712L16.4916 18.1718M9.59046 18.1718H16.4916" stroke="#EFA116"/>
</svg>
