<svg width="28" height="28" viewBox="0 0 28 28" fill="none" xmlns="http://www.w3.org/2000/svg">
<rect x="7.45435" y="6" width="1.45455" height="15.2727" fill="#080708"/>
<rect x="13.2727" y="6" width="1.45455" height="15.2727" fill="#080708"/>
<rect x="19.0908" y="6" width="1.45455" height="15.2727" fill="#080708"/>
<path d="M16.1818 10.7274C16.1818 11.9323 15.2049 12.9092 13.9999 12.9092C12.7949 12.9092 11.8181 11.9323 11.8181 10.7274C11.8181 9.52237 12.7949 8.54553 13.9999 8.54553C15.2049 8.54553 16.1818 9.52237 16.1818 10.7274ZM13.3454 10.7274C13.3454 11.0888 13.6384 11.3819 13.9999 11.3819C14.3614 11.3819 14.6545 11.0888 14.6545 10.7274C14.6545 10.3659 14.3614 10.0728 13.9999 10.0728C13.6384 10.0728 13.3454 10.3659 13.3454 10.7274Z" fill="#080708"/>
<path d="M10.3636 17.2728C10.3636 18.4777 9.3868 19.4546 8.18182 19.4546C6.97683 19.4546 6 18.4777 6 17.2728C6 16.0678 6.97683 15.0909 8.18182 15.0909C9.3868 15.0909 10.3636 16.0678 10.3636 17.2728ZM7.52727 17.2728C7.52727 17.6343 7.82032 17.9273 8.18182 17.9273C8.54331 17.9273 8.83636 17.6343 8.83636 17.2728C8.83636 16.9113 8.54331 16.6182 8.18182 16.6182C7.82032 16.6182 7.52727 16.9113 7.52727 17.2728Z" fill="#080708"/>
<path d="M22.0001 15.0909C22.0001 16.2959 21.0233 17.2727 19.8183 17.2727C18.6133 17.2727 17.6365 16.2959 17.6365 15.0909C17.6365 13.8859 18.6133 12.9091 19.8183 12.9091C21.0233 12.9091 22.0001 13.8859 22.0001 15.0909ZM19.1637 15.0909C19.1637 15.4524 19.4568 15.7454 19.8183 15.7454C20.1798 15.7454 20.4728 15.4524 20.4728 15.0909C20.4728 14.7294 20.1798 14.4363 19.8183 14.4363C19.4568 14.4363 19.1637 14.7294 19.1637 15.0909Z" fill="#080708"/>
<ellipse cx="14" cy="10.7273" rx="0.727273" ry="0.727273" fill="white"/>
<ellipse cx="19.8181" cy="15.091" rx="0.727273" ry="0.727273" fill="white"/>
<ellipse cx="8.18162" cy="17.2728" rx="0.727273" ry="0.727273" fill="white"/>
</svg>
