<svg width="26" height="32" viewBox="0 0 26 32" fill="none" xmlns="http://www.w3.org/2000/svg">
<path d="M26 13.0909C26 23.2727 13 32 13 32C13 32 0 23.2727 0 13.0909C5.13764e-08 9.61898 1.36964 6.28926 3.80761 3.83424C6.24558 1.37922 9.55219 0 13 0C16.4478 0 19.7544 1.37922 22.1924 3.83424C24.6304 6.28926 26 9.61898 26 13.0909Z" fill="#F3757C"/>
<path d="M18.8868 8.1993L19.7478 11.4464C19.9145 12.075 19.7766 12.7684 19.2399 13.1356C19.2165 13.1517 19.1927 13.1675 19.1685 13.1832V18.4238C19.1685 19.5284 18.2731 20.4238 17.1685 20.4238H15.4499H10.6326H8.70274C7.59817 20.4238 6.70274 19.5284 6.70274 18.4238V13.2604C6.50108 13.1428 6.35266 13.0084 6.24489 12.8833C6.02673 12.6299 6.02097 12.2776 6.09081 11.9507L6.87186 8.29413C7.06896 7.37138 7.88417 6.71191 8.82774 6.71191H11.0129H14.8161H16.9536C17.8608 6.71191 18.6543 7.32246 18.8868 8.1993Z" fill="white"/>
<path d="M15.4499 12.4489C15.4499 12.4489 16.4218 13.5882 17.8163 13.5882C18.3774 13.5882 18.8291 13.4037 19.1685 13.1832M15.4499 12.4489L14.8161 6.71191M15.4499 12.4489C15.4499 12.4489 14.8161 13.5882 13.1681 13.5882C11.3087 13.5882 10.6326 12.4489 10.6326 12.4489M14.8161 6.71191H16.9536C17.8608 6.71191 18.6543 7.32246 18.8868 8.1993L19.7478 11.4464C19.9145 12.075 19.7766 12.7684 19.2399 13.1356C19.2165 13.1517 19.1927 13.1675 19.1685 13.1832M14.8161 6.71191H11.0129M10.6326 12.4489L11.0129 6.71191M10.6326 12.4489C10.6326 12.4489 9.87201 13.5882 8.09722 13.5882C7.46825 13.5882 7.01973 13.4451 6.70274 13.2604M11.0129 6.71191H8.82774C7.88417 6.71191 7.06896 7.37138 6.87186 8.29413L6.09081 11.9507C6.02097 12.2776 6.02673 12.6299 6.24489 12.8833C6.35266 13.0084 6.50108 13.1428 6.70274 13.2604M6.70274 13.2604V18.4238C6.70274 19.5284 7.59817 20.4238 8.70274 20.4238H10.6326M19.1685 13.1832V18.4238C19.1685 19.5284 18.2731 20.4238 17.1685 20.4238H15.4499M10.6326 20.4238V18.0295C10.6326 16.9249 11.5281 16.0295 12.6326 16.0295H13.4499C14.5545 16.0295 15.4499 16.9249 15.4499 18.0295V20.4238M10.6326 20.4238H15.4499" stroke="#F3757C"/>
</svg>
