<svg width="28" height="28" viewBox="0 0 28 28" fill="none" xmlns="http://www.w3.org/2000/svg">
<path d="M12.8424 19.6847C14.3605 19.6844 15.8349 19.1762 17.0307 18.241L20.7906 22.0009L22 20.7915L18.2401 17.0316C19.1758 15.8356 19.6844 14.3609 19.6847 12.8424C19.6847 9.06965 16.6151 6 12.8424 6C9.06965 6 6 9.06965 6 12.8424C6 16.6151 9.06965 19.6847 12.8424 19.6847ZM12.8424 7.71059C15.6725 7.71059 17.9741 10.0122 17.9741 12.8424C17.9741 15.6725 15.6725 17.9741 12.8424 17.9741C10.0122 17.9741 7.71059 15.6725 7.71059 12.8424C7.71059 10.0122 10.0122 7.71059 12.8424 7.71059Z" fill="#080708"/>
</svg>
