<svg width="24" height="24" viewBox="0 0 24 24" fill="none" xmlns="http://www.w3.org/2000/svg">
<path d="M11.3864 2.47751L3.3864 8.69973C3.14281 8.88919 3.00034 9.18049 3.00034 9.48908V20L3.00012 20.9999C2.99999 21.5522 3.44771 22 4 22H5.00034H8.00034C8.55262 22 9.00034 21.5523 9.00034 21V13.0811C9.00034 12.5288 9.44805 12.0811 10.0003 12.0811H14.0003C14.5526 12.0811 15.0003 12.5288 15.0003 13.0811V21C15.0003 21.5523 15.4481 22 16.0003 22H19.0003H19.9996C20.5522 22 21.0001 21.5519 21.0002 20.9993L21.0003 20V9.48908C21.0003 9.18049 20.8579 8.88919 20.6143 8.69973L12.6143 2.47751C12.2532 2.19665 11.7475 2.19665 11.3864 2.47751Z" stroke="#080708" stroke-width="1.5" stroke-linecap="round" stroke-linejoin="round"/>
</svg>
