<svg width="24" height="24" viewBox="0 0 24 24" fill="none" xmlns="http://www.w3.org/2000/svg">
<path d="M11.3863 2.47751L3.38625 8.69973C3.14267 8.88919 3.0002 9.18049 3.0002 9.48908V20L3.00007 20.9999C2.99999 21.5522 3.44827 22 4.00056 22H5.0002H8.0002C8.55248 22 9.0002 21.5523 9.0002 21V13.0811C9.0002 12.5288 9.44791 12.0811 10.0002 12.0811H14.0002C14.5525 12.0811 15.0002 12.5288 15.0002 13.0811V21C15.0002 21.5523 15.4479 22 16.0002 22H19.0002H20.0001C20.5524 22 21.0002 21.5522 21.0002 20.9999V20V9.48908C21.0002 9.18049 20.8577 8.88919 20.6141 8.69973L12.6141 2.47751C12.253 2.19665 11.7474 2.19665 11.3863 2.47751Z" fill="#981C26" stroke="#981C26" stroke-width="1.5" stroke-linecap="round" stroke-linejoin="round"/>
</svg>
