<svg width="24" height="24" viewBox="0 0 24 24" fill="none" xmlns="http://www.w3.org/2000/svg">
<path d="M10.5 18C14.6421 18 18 14.6421 18 10.5C18 6.35786 14.6421 3 10.5 3C6.35786 3 3 6.35786 3 10.5C3 14.6421 6.35786 18 10.5 18Z" stroke="#981C26" stroke-width="2" stroke-linecap="round" stroke-linejoin="round"/>
<path d="M20.2929 22.7071C20.6834 23.0976 21.3166 23.0976 21.7071 22.7071C22.0976 22.3166 22.0976 21.6834 21.7071 21.2929L20.2929 22.7071ZM16.7071 16.2929L16 15.5858L14.5858 17L15.2929 17.7071L16.7071 16.2929ZM21.7071 21.2929L16.7071 16.2929L15.2929 17.7071L20.2929 22.7071L21.7071 21.2929Z" fill="#981C26"/>
</svg>
