<svg width="24" height="24" viewBox="0 0 24 24" fill="none" xmlns="http://www.w3.org/2000/svg">
<path d="M10.5 18C14.6421 18 18 14.6421 18 10.5C18 6.35786 14.6421 3 10.5 3C6.35786 3 3 6.35786 3 10.5C3 14.6421 6.35786 18 10.5 18Z" stroke="#080708" stroke-width="1.5" stroke-linecap="round" stroke-linejoin="round"/>
<path d="M20.4697 22.5303C20.7626 22.8232 21.2374 22.8232 21.5303 22.5303C21.8232 22.2374 21.8232 21.7626 21.5303 21.4697L20.4697 22.5303ZM16.5303 16.4697L16 15.9393L14.9393 17L15.4697 17.5303L16.5303 16.4697ZM21.5303 21.4697L16.5303 16.4697L15.4697 17.5303L20.4697 22.5303L21.5303 21.4697Z" fill="#080708"/>
</svg>
