<svg width="24" height="24" viewBox="0 0 24 24" fill="none" xmlns="http://www.w3.org/2000/svg">
<path d="M21 22V19.6667C21 18.429 20.5259 17.242 19.682 16.3668C18.8381 15.4917 17.6935 15 16.5 15H7.5C6.30653 15 5.16193 15.4917 4.31802 16.3668C3.47411 17.242 3 18.429 3 19.6667V22" fill="#981C26"/>
<path d="M21 22V19.6667C21 18.429 20.5259 17.242 19.682 16.3668C18.8381 15.4917 17.6935 15 16.5 15H7.5C6.30653 15 5.16193 15.4917 4.31802 16.3668C3.47411 17.242 3 18.429 3 19.6667V22H21Z" stroke="#981C26" stroke-width="1.5" stroke-linecap="round" stroke-linejoin="round"/>
<path d="M12 12C14.4853 12 16.5 9.98528 16.5 7.5C16.5 5.01472 14.4853 3 12 3C9.51472 3 7.5 5.01472 7.5 7.5C7.5 9.98528 9.51472 12 12 12Z" fill="#981C26" stroke="#981C26" stroke-width="1.5" stroke-linecap="round" stroke-linejoin="round"/>
</svg>
