<svg width="145" height="65" viewBox="0 0 145 65" fill="none" xmlns="http://www.w3.org/2000/svg">
<path d="M81 14.3333C81 16.6908 80.0635 18.9517 78.3965 20.6187C76.7295 22.2857 74.4686 23.2222 72.1111 23.2222H13.7778L6 31L6.9914 23.2891C6.99596 23.2536 6.96833 23.2222 6.93256 23.2222C3.6561 23.2222 1 20.5661 1 17.2897L1 9.88889C1 7.53141 1.9365 5.27048 3.60349 3.60349C5.27048 1.9365 7.53141 1 9.88889 1H72.1111C74.4686 1 76.7295 1.9365 78.3965 3.60349C80.0635 5.27048 81 7.53141 81 9.88889V14.3333Z" fill="#E5E5E5" stroke="#E5E5E5" stroke-linecap="round" stroke-linejoin="round"/>
<path d="M64 47.3333C64 49.6908 64.9365 51.9517 66.6035 53.6187C68.2705 55.2857 70.5314 56.2222 72.8889 56.2222H131.222L139 64L138.009 56.2891C138.004 56.2536 138.032 56.2222 138.067 56.2222C141.344 56.2222 144 53.5661 144 50.2897L144 37.8889C144 35.5314 143.063 33.2705 141.397 31.6035C139.73 29.9365 137.469 29 135.111 29H72.8889C70.5314 29 68.2705 29.9365 66.6035 31.6035C64.9365 33.2705 64 35.5314 64 37.8889V47.3333Z" fill="#EAD2D4" stroke="#EAD2D4" stroke-linecap="round" stroke-linejoin="round"/>
</svg>
