<svg width="20" height="24" viewBox="0 0 20 24" fill="none" xmlns="http://www.w3.org/2000/svg">
<path d="M16.4367 12.648C16.4258 10.7832 17.2707 9.37773 18.977 8.34141C18.0227 6.97422 16.5789 6.22226 14.6758 6.07734C12.8738 5.93516 10.9023 7.12734 10.1805 7.12734C9.41758 7.12734 7.67305 6.12656 6.30039 6.12656C3.46758 6.17031 0.457031 8.38515 0.457031 12.8914C0.457031 14.223 0.700391 15.5984 1.18711 17.0148C1.83789 18.8797 4.18398 23.4488 6.63125 23.375C7.91094 23.3449 8.81602 22.4672 10.4812 22.4672C12.0973 22.4672 12.934 23.375 14.3613 23.375C16.8305 23.3395 18.9523 19.1859 19.5703 17.3156C16.259 15.7543 16.4367 12.7437 16.4367 12.648ZM13.5629 4.3082C14.9492 2.66211 14.8234 1.16367 14.7824 0.625C13.5574 0.696094 12.141 1.45898 11.3344 2.39687C10.4457 3.40312 9.92344 4.64726 10.0355 6.05C11.359 6.15117 12.5676 5.47031 13.5629 4.3082Z" fill="white"/>
</svg>
