<svg width="32" height="32" viewBox="0 0 32 32" fill="none" xmlns="http://www.w3.org/2000/svg">
<path d="M16 4C23.732 4 30 8.88533 30 14.9133C30 20.94 23.732 25.8253 16 25.8253C15.2301 25.8257 14.461 25.7768 13.6973 25.6787L7.82 29.5227C7.152 29.876 6.916 29.8373 7.19067 28.972L8.38 24.068C4.54 22.1213 2 18.748 2 14.9133C2 8.88667 8.268 4 16 4ZM23.876 14.7467L25.836 12.848C25.9491 12.7305 26.0122 12.5738 26.012 12.4107C26.0118 12.2477 25.9483 12.0911 25.8349 11.9739C25.7216 11.8567 25.5671 11.7881 25.4042 11.7825C25.2412 11.7769 25.0825 11.8348 24.9613 11.944L22.3907 14.432V12.376C22.3907 12.2091 22.3244 12.049 22.2063 11.931C22.0883 11.813 21.9282 11.7467 21.7613 11.7467C21.5944 11.7467 21.4344 11.813 21.3163 11.931C21.1983 12.049 21.132 12.2091 21.132 12.376V15.7853C21.1084 15.8826 21.1084 15.9841 21.132 16.0813V18C21.132 18.1669 21.1983 18.327 21.3163 18.445C21.4344 18.563 21.5944 18.6293 21.7613 18.6293C21.9282 18.6293 22.0883 18.563 22.2063 18.445C22.3244 18.327 22.3907 18.1669 22.3907 18V16.1827L22.96 15.632L24.864 18.3427C24.9115 18.4103 24.9719 18.468 25.0418 18.5123C25.1116 18.5567 25.1894 18.5868 25.2709 18.601C25.3524 18.6153 25.4359 18.6133 25.5166 18.5953C25.5973 18.5773 25.6737 18.5435 25.7413 18.496C25.809 18.4485 25.8667 18.3881 25.911 18.3182C25.9553 18.2484 25.9855 18.1706 25.9997 18.0891C26.0139 18.0076 26.012 17.9241 25.994 17.8434C25.9759 17.7627 25.9422 17.6863 25.8947 17.6187L23.876 14.7453V14.7467ZM19.932 17.312H17.9853V12.396C17.9779 12.2343 17.9084 12.0816 17.7913 11.9698C17.6742 11.858 17.5186 11.7956 17.3567 11.7956C17.1948 11.7956 17.0391 11.858 16.922 11.9698C16.8049 12.0816 16.7354 12.2343 16.728 12.396V17.9413C16.728 18.288 17.008 18.5707 17.356 18.5707H19.932C20.0989 18.5707 20.259 18.5044 20.377 18.3863C20.495 18.2683 20.5613 18.1082 20.5613 17.9413C20.5613 17.7744 20.495 17.6143 20.377 17.4963C20.259 17.3783 20.0989 17.312 19.932 17.312ZM12.1227 15.856L13.0507 13.58L13.9013 15.856H12.1227ZM15.4867 16.5067L15.4893 16.4853C15.489 16.3268 15.4285 16.1743 15.32 16.0587L13.9253 12.3253C13.8669 12.1474 13.7555 11.9916 13.6061 11.8787C13.4567 11.7657 13.2764 11.7011 13.0893 11.6933C12.9009 11.6925 12.7166 11.7491 12.5611 11.8556C12.4055 11.962 12.2861 12.1133 12.2187 12.2893L10.004 17.7227C9.97275 17.7992 9.95687 17.8811 9.95727 17.9638C9.95768 18.0464 9.97436 18.1282 10.0064 18.2044C10.0384 18.2806 10.0851 18.3497 10.1438 18.4079C10.2025 18.4661 10.2722 18.5121 10.3487 18.5433C10.4252 18.5746 10.5071 18.5905 10.5898 18.5901C10.6724 18.5897 10.7542 18.573 10.8304 18.541C10.9066 18.509 10.9757 18.4623 11.0339 18.4035C11.0921 18.3448 11.1381 18.2752 11.1693 18.1987L11.6093 17.1147H14.3693L14.768 18.1813C14.7951 18.2611 14.8379 18.3345 14.894 18.3974C14.95 18.4603 15.018 18.5113 15.0941 18.5474C15.1702 18.5835 15.2528 18.6039 15.3369 18.6075C15.421 18.6111 15.505 18.5978 15.5839 18.5684C15.6628 18.5389 15.735 18.4939 15.7962 18.4361C15.8574 18.3782 15.9064 18.3087 15.9402 18.2315C15.974 18.1544 15.992 18.0713 15.9931 17.9871C15.9942 17.9029 15.9784 17.8193 15.9467 17.7413L15.4867 16.5067ZM11.0573 12.4027C11.0573 12.236 10.9912 12.0761 10.8735 11.9581C10.7557 11.8401 10.596 11.7737 10.4293 11.7733H6.10267C5.93576 11.7733 5.77568 11.8396 5.65766 11.9577C5.53964 12.0757 5.47333 12.2358 5.47333 12.4027C5.47333 12.5696 5.53964 12.7296 5.65766 12.8477C5.77568 12.9657 5.93576 13.032 6.10267 13.032H7.64933V18.0133C7.64933 18.1802 7.71564 18.3403 7.83366 18.4583C7.95168 18.5764 8.11176 18.6427 8.27867 18.6427C8.44558 18.6427 8.60565 18.5764 8.72367 18.4583C8.8417 18.3403 8.908 18.1802 8.908 18.0133V13.032H10.428C10.5949 13.032 10.755 12.9657 10.873 12.8477C10.991 12.7296 11.0573 12.5696 11.0573 12.4027Z" fill="#080708"/>
</svg>
