<svg width="80" height="80" viewBox="0 0 80 80" fill="none" xmlns="http://www.w3.org/2000/svg">
<circle cx="40" cy="40" r="40" fill="#981C26"/>
<path d="M55.75 56.5V52.4167C55.75 50.2507 54.9203 48.1735 53.4435 46.642C51.9666 45.1104 49.9636 44.25 47.875 44.25H32.125C30.0364 44.25 28.0334 45.1104 26.5565 46.642C25.0797 48.1735 24.25 50.2507 24.25 52.4167V56.5" fill="white"/>
<path d="M55.75 56.5V52.4167C55.75 50.2507 54.9203 48.1735 53.4435 46.642C51.9666 45.1104 49.9636 44.25 47.875 44.25H32.125C30.0364 44.25 28.0334 45.1104 26.5565 46.642C25.0797 48.1735 24.25 50.2507 24.25 52.4167V56.5H55.75Z" stroke="white" stroke-width="1.5" stroke-linecap="round" stroke-linejoin="round"/>
<path d="M40 39C44.3492 39 47.875 35.4742 47.875 31.125C47.875 26.7758 44.3492 23.25 40 23.25C35.6508 23.25 32.125 26.7758 32.125 31.125C32.125 35.4742 35.6508 39 40 39Z" fill="white" stroke="white" stroke-width="1.5" stroke-linecap="round" stroke-linejoin="round"/>
</svg>
