<svg xmlns="http://www.w3.org/2000/svg" viewBox="0 0 1200 630" width="1200" height="630">
  <defs>
    <linearGradient id="bg" x1="0" y1="0" x2="1" y2="1"><stop offset="0%" stop-color="#0d1117"/><stop offset="100%" stop-color="#161b22"/></linearGradient>
    <linearGradient id="accent" x1="0" y1="0" x2="1" y2="0"><stop offset="0%" stop-color="#00b56e"/><stop offset="100%" stop-color="#34d399"/></linearGradient>
  </defs>
  <rect width="1200" height="630" fill="url(#bg)"/>
  <g stroke="#1c232c" stroke-width="1"><path d="M0 157.5H1200M0 315H1200M0 472.5H1200M300 0V630M600 0V630M900 0V630"/></g>
  <circle cx="600" cy="315" r="270" fill="#00a362" opacity="0.08"/>
  <g opacity="0.3">
    <rect x="150" y="452" width="180" height="14" rx="7" fill="#2f3b46"/><rect x="150" y="452" width="131" height="14" rx="7" fill="#00a362"/>
    <rect x="360" y="452" width="180" height="14" rx="7" fill="#2f3b46"/><rect x="360" y="452" width="6" height="14" rx="3" fill="#00a362"/>
    <rect x="570" y="452" width="180" height="14" rx="7" fill="#2f3b46"/><rect x="570" y="452" width="180" height="14" rx="7" fill="#e5534b"/>
  </g>
  <text x="600" y="200" text-anchor="middle" font-family="Helvetica, Arial, sans-serif" font-size="30" fill="#6b7785" letter-spacing="8">STOCKANALYST · OCI DEPLOY</text>
  <text x="600" y="330" text-anchor="middle" font-family="Helvetica, Arial, sans-serif" font-size="80" font-weight="bold" fill="url(#accent)">무료 티어의 진짜 벽</text>
  <rect x="540" y="372" width="120" height="5" rx="2.5" fill="url(#accent)"/>
  <text x="600" y="425" text-anchor="middle" font-family="Helvetica, Arial, sans-serif" font-size="28" fill="#9aa7b4">홈 리전 · 요청 수 · 유휴 회수 · ARM 빌드</text>
</svg>