<svg xmlns="http://www.w3.org/2000/svg" viewBox="0 0 1200 630" width="1200" height="630">
  <defs>
    <linearGradient id="bg" x1="0" y1="0" x2="1" y2="1"><stop offset="0%" stop-color="#0d1117"/><stop offset="100%" stop-color="#161b22"/></linearGradient>
    <linearGradient id="accent" x1="0" y1="0" x2="1" y2="0"><stop offset="0%" stop-color="#00b56e"/><stop offset="100%" stop-color="#34d399"/></linearGradient>
  </defs>
  <rect width="1200" height="630" fill="url(#bg)"/>
  <g stroke="#1c232c" stroke-width="1"><path d="M0 157.5H1200M0 315H1200M0 472.5H1200M300 0V630M600 0V630M900 0V630"/></g>
  <circle cx="600" cy="315" r="270" fill="#00a362" opacity="0.08"/>
  <polyline points="120,470 210,430 300,455 390,360 480,395 570,275 660,320 750,215 840,255 930,180 1020,220 1080,165" fill="none" stroke="#00a362" stroke-width="3" opacity="0.35" stroke-linejoin="round"/>
  <text x="600" y="200" text-anchor="middle" font-family="Helvetica, Arial, sans-serif" font-size="30" fill="#6b7785" letter-spacing="8">STOCKANALYST · DOW THEORY</text>
  <text x="600" y="330" text-anchor="middle" font-family="Helvetica, Arial, sans-serif" font-size="88" font-weight="bold" fill="url(#accent)">1차 추세와 국면</text>
  <rect x="540" y="372" width="120" height="5" rx="2.5" fill="url(#accent)"/>
  <text x="600" y="440" text-anchor="middle" font-family="Helvetica, Arial, sans-serif" font-size="28" fill="#9aa7b4">주봉 ZigZag · 9국면 · 로그 스케일 52주 위치</text>
</svg>