<svg width="20" height="20" viewBox="0 0 20 20" fill="none" xmlns="http://www.w3.org/2000/svg">
<ellipse cx="10" cy="9.99805" rx="10" ry="9.99805" fill="#981C26"/>
<path fill-rule="evenodd" clip-rule="evenodd" d="M10.5013 4.5C10.5013 4.22386 10.2775 4 10.0013 4C9.72519 4 9.50133 4.22386 9.50133 4.5V9.49964H4.50098C4.22483 9.49964 4.00098 9.72349 4.00098 9.99964C4.00098 10.2758 4.22483 10.4996 4.50098 10.4996H9.50133V15.4977C9.50133 15.7738 9.72519 15.9977 10.0013 15.9977C10.2775 15.9977 10.5013 15.7738 10.5013 15.4977V10.4996H15.501C15.7771 10.4996 16.001 10.2758 16.001 9.99964C16.001 9.72349 15.7771 9.49964 15.501 9.49964H10.5013V4.5Z" fill="white"/>
</svg>
