<svg width="14" height="14" viewBox="0 0 14 14" fill="none" xmlns="http://www.w3.org/2000/svg">
<path d="M12.25 5.83398C12.25 9.10783 8.87522 12.0067 7.53717 13.0274C7.2162 13.2722 6.7838 13.2722 6.46283 13.0274C5.12478 12.0067 1.75 9.10783 1.75 5.83398C1.75 4.4416 2.30312 3.10624 3.28769 2.12167C4.27226 1.13711 5.60761 0.583984 7 0.583984C8.39239 0.583984 9.72774 1.13711 10.7123 2.12167C11.6969 3.10624 12.25 4.4416 12.25 5.83398Z" stroke="white" stroke-linecap="round" stroke-linejoin="round"/>
<path d="M7 7.58398C7.9665 7.58398 8.75 6.80048 8.75 5.83398C8.75 4.86749 7.9665 4.08398 7 4.08398C6.0335 4.08398 5.25 4.86749 5.25 5.83398C5.25 6.80048 6.0335 7.58398 7 7.58398Z" stroke="white" stroke-linecap="round" stroke-linejoin="round"/>
</svg>
