<svg width="24" height="24" viewBox="0 0 24 24" fill="none" xmlns="http://www.w3.org/2000/svg">
<path d="M18 7H9C7.89543 7 7 7.89543 7 9V18C7 19.1046 7.89543 20 9 20H18C19.1046 20 20 19.1046 20 18V9C20 7.89543 19.1046 7 18 7Z" stroke="#525252" stroke-width="1.5" stroke-linecap="round" stroke-linejoin="round"/>
<path d="M6 16H5C4.46957 16 3.96086 15.7893 3.58579 15.4142C3.21071 15.0391 3 14.5304 3 14V5C3 4.46957 3.21071 3.96086 3.58579 3.58579C3.96086 3.21071 4.46957 3 5 3H14C14.5304 3 15.0391 3.21071 15.4142 3.58579C15.7893 3.96086 16 4.46957 16 5V6" stroke="#525252" stroke-width="1.5" stroke-linecap="square" stroke-linejoin="round"/>
</svg>
