<svg width="18" height="18" viewBox="0 0 18 18" fill="none" xmlns="http://www.w3.org/2000/svg">
<path d="M9 4.5V9V13.5" stroke="#525252" stroke-linecap="round" stroke-linejoin="round"/>
<path d="M10.875 6H8.0625C7.7144 6 7.38056 6.15804 7.13442 6.43934C6.88828 6.72064 6.75 7.10218 6.75 7.5C6.75 7.89783 6.88828 8.27936 7.13442 8.56066C7.38056 8.84197 7.7144 9 8.0625 9H9.9375C10.2856 9 10.6194 9.15804 10.8656 9.43934C11.1117 9.72065 11.25 10.1022 11.25 10.5C11.25 10.8978 11.1117 11.2794 10.8656 11.5607C10.6194 11.842 10.2856 12 9.9375 12H6.75" stroke="#525252" stroke-linecap="round" stroke-linejoin="round"/>
<circle cx="9" cy="9" r="7" stroke="#525252"/>
</svg>
