<svg width="28" height="20" viewBox="0 0 28 20" fill="none" xmlns="http://www.w3.org/2000/svg">
<path d="M27 2V5.14286C27 5.69514 26.5492 6.14993 26.0124 6.27995C24.857 6.55982 23.1 7.41104 23.1 10C23.1 12.589 24.857 13.4402 26.0124 13.72C26.5492 13.8501 27 14.3049 27 14.8571V18C27 18.5523 26.5523 19 26 19H10.1H2C1.44771 19 1 18.5523 1 18V14.8571C1 14.3049 1.4508 13.8501 1.98756 13.72C3.14295 13.4402 4.9 12.589 4.9 10C4.9 7.41104 3.14295 6.55982 1.98756 6.27995C1.4508 6.14993 1 5.69514 1 5.14286V2C1 1.44772 1.44772 1 2 1H10.1H26C26.5523 1 27 1.44772 27 2Z" fill="white"/>
<path d="M10.1 1H2C1.44772 1 1 1.44772 1 2V5.14286C1 5.69514 1.4508 6.14993 1.98756 6.27995C3.14295 6.55982 4.9 7.41104 4.9 10C4.9 12.589 3.14295 13.4402 1.98756 13.72C1.4508 13.8501 1 14.3049 1 14.8571V18C1 18.5523 1.44771 19 2 19H10.1M10.1 1H26C26.5523 1 27 1.44772 27 2V5.14286C27 5.69514 26.5492 6.14993 26.0124 6.27995C24.857 6.55982 23.1 7.41104 23.1 10C23.1 12.589 24.857 13.4402 26.0124 13.72C26.5492 13.8501 27 14.3049 27 14.8571V18C27 18.5523 26.5523 19 26 19H10.1M10.1 1V19" stroke="#981C26" stroke-width="1.5"/>
</svg>
