<svg xmlns="http://www.w3.org/2000/svg" viewBox="0 0 1200 630" width="1200" height="630">
  <defs>
    <linearGradient id="bg" x1="0" y1="0" x2="1" y2="1"><stop offset="0%" stop-color="#0d1117"/><stop offset="100%" stop-color="#161b22"/></linearGradient>
    <linearGradient id="accent" x1="0" y1="0" x2="1" y2="1"><stop offset="0%" stop-color="#F3757C"/><stop offset="100%" stop-color="#EFA116"/></linearGradient>
  </defs>
  <rect width="1200" height="630" fill="url(#bg)"/>
  <g stroke="#1a212a" stroke-width="1"><path d="M0 157.5H1200M0 315H1200M0 472.5H1200M300 0V630M600 0V630M900 0V630"/></g>
  <circle cx="600" cy="300" r="250" fill="#F3757C" opacity="0.06"/>
  <g transform="translate(548.0,146.0) scale(4.3333)">
<circle cx="18" cy="20" r="2" fill="url(#accent)"/>
  <path d="M19.9997 18V18C19.0484 16.5729 16.9514 16.573 16 18V18V11.0397C16 8.58532 14.2211 7 12 7C9.77886 7 7.97405 8.58272 7.97405 11.0397V20.0126C7.97405 21.11 7.08443 21.9996 5.98702 21.9996V21.9996C4.88962 21.9996 4 21.11 4 20.0126V11.0397C4 6.15962 7.58831 3 12 3C16.4117 3 19.9997 6.15962 19.9997 11.0397V18Z" fill="url(#accent)"/>
  </g>
  <text x="600" y="336" text-anchor="middle" font-family="'Helvetica Neue', Helvetica, Arial, 'Apple SD Gothic Neo', 'Malgun Gothic', sans-serif" font-size="62" font-weight="bold" fill="url(#accent)">nearby</text>
  <rect x="555" y="364" width="90" height="5" rx="2.5" fill="url(#accent)"/>
  <text x="600" y="424" text-anchor="middle" font-family="'Helvetica Neue', Helvetica, Arial, 'Apple SD Gothic Neo', 'Malgun Gothic', sans-serif" font-size="30" fill="#e6edf3">내 주변의 전시와 공연을 찾는 위치 기반 티켓 서비스</text>
  <text x="600" y="470" text-anchor="middle" font-family="'Helvetica Neue', Helvetica, Arial, 'Apple SD Gothic Neo', 'Malgun Gothic', sans-serif" font-size="22" fill="#8b95a1">react · 프로젝트 · 지도 · 상태관리</text>
</svg>